<svg xmlns="http://www.w3.org/2000/svg" viewBox="0 0 641.86 1075.91"><defs><style>.cls-1{fill:none;stroke:#312783;stroke-miterlimit:10;}.cls-2{fill:#36a9e1;}.cls-3{fill:#12647a;}.cls-4{fill:#009fe3;}</style></defs><g id="Capa_2" data-name="Capa 2"><g id="Capa_1-2" data-name="Capa 1"><path class="cls-1" d="M376.48,414.5a105.88,105.88,0,0,1-9.81,5.67C369.9,418.21,373.17,416.33,376.48,414.5Z"/><path class="cls-2" d="M641.86,324.41a326.1,326.1,0,0,1-6.7,65.92C604.7,537.89,474,648.82,317.45,648.82a323.9,323.9,0,0,1-101.71-16.27A324.73,324.73,0,0,1,366.67,420.17c3.23-2,6.5-3.84,9.81-5.67a108,108,0,0,0-111.22-185c-1.05.58-2.09,1.18-3.12,1.81l-.13.07a322.57,322.57,0,0,1-160.1,42.25A323.71,323.71,0,0,1,0,257.24,324.77,324.77,0,0,1,149.72,46.67q6.14-3.7,12.44-7.16a325.34,325.34,0,0,1,257-23.25C548.49,58.91,641.86,180.75,641.86,324.41Z"/><path class="cls-3" d="M419.12,16.26a324.46,324.46,0,0,1-153.86,213.2c-1.05.58-2.09,1.18-3.12,1.81l-.13.07a322.57,322.57,0,0,1-160.1,42.25A323.71,323.71,0,0,1,0,257.24,324.77,324.77,0,0,1,149.72,46.67q6.14-3.7,12.44-7.16a325.34,325.34,0,0,1,257-23.25Z"/><path class="cls-4" d="M424.43,968.78A107.15,107.15,0,1,1,317.3,861.65,106.75,106.75,0,0,1,424.43,968.78Z"/><path class="cls-3" d="M424.43,968.78a106.75,106.75,0,0,1-5.31,33.38A325.41,325.41,0,0,1,262.38,876.78a107.15,107.15,0,0,1,162.05,92Z"/><path class="cls-3" d="M635.16,390.33C604.7,537.89,474,648.82,317.45,648.82a323.9,323.9,0,0,1-101.71-16.27A324.73,324.73,0,0,1,366.67,420.17c3.23-2,6.5-3.84,9.81-5.67a325.32,325.32,0,0,1,258.68-24.17Z"/></g></g></svg>